Input #0, mov,mp4,m4a,3gp,3g2,mj2, from '/Users/taeta/Pictures/Backup Cameras/iPhone X/1_IMAGE_CAPTURE_X/BVDU6856.MOV':
  Metadata:
    major_brand     : qt  
    minor_version   : 0
    compatible_brands: qt  
    creation_time   : 2019-05-04T19:11:20.000000Z
  Duration: 00:00:10.98, start: 0.000000, bitrate: 766 kb/s
    Stream #0:0(und): Audio: aac (LC) (mp4a / 0x6134706D), 44100 Hz, mono, fltp, 62 kb/s (default)
    Metadata:
      creation_time   : 2019-05-04T19:11:20.000000Z
      handler_name    : Core Media Audio
    Stream #0:1(und): Video: h264 (Main) (avc1 / 0x31637661), yuv420p(tv, smpte170m/bt709/bt709), 568x320, 758 kb/s, 30 fps, 30 tbr, 600 tbn, 1200 tbc (default)
    Metadata:
      creation_time   : 2019-05-04T19:11:20.000000Z
      handler_name    : Core Media Video
      encoder         : H.264
At least one output file must be specified
